<?xml version="1.0" encoding="UTF-8"?>
<svg id="Lag_2" data-name="Lag 2" xmlns="http://www.w3.org/2000/svg" viewBox="0 0 374.28 79.53">
  <defs>
    <style>
      .cls-1 {
        fill: #5e9efa;
      }
    </style>
  </defs>
  <g id="Lag_1-2" data-name="Lag 1">
    <g>
      <path d="m69.9,34.14V.42h15.09c2.12,0,3.84.26,5.15.78,1.31.52,2.31,1.27,3.01,2.23.7.96,1.18,2.12,1.42,3.45.24,1.34.37,2.83.37,4.46,0,1.54-.11,2.96-.34,4.29-.23,1.32-.69,2.48-1.4,3.48-.7,1-1.72,1.77-3.06,2.33-1.34.56-3.1.83-5.29.83h-9.41v11.86h-5.54Zm5.54-16.56h7.3c1.53,0,2.76-.1,3.67-.29.91-.2,1.58-.54,1.98-1.03.41-.49.68-1.13.81-1.91.13-.78.2-1.78.2-2.99s-.06-2.21-.17-3.01c-.11-.8-.38-1.44-.78-1.91-.41-.47-1.05-.81-1.94-1-.88-.2-2.09-.29-3.63-.29h-7.45v12.45Z"/>
      <path d="m107.73,34.14V.42h15.73c2.12,0,3.84.25,5.15.73,1.31.49,2.29,1.2,2.94,2.13.65.93,1.09,2.04,1.32,3.33.23,1.29.34,2.7.34,4.24,0,1.11-.11,2.33-.32,3.65-.21,1.32-.67,2.53-1.37,3.63-.7,1.09-1.81,1.89-3.31,2.38l5.54,13.62h-5.88l-5.39-13.77,1.42.73c-.23.1-.5.16-.81.17-.31.02-.68.02-1.1.02h-8.72v12.84h-5.54Zm5.54-17.54h7.84c1.54,0,2.74-.11,3.63-.32.88-.21,1.53-.55,1.96-1,.42-.46.69-1.04.81-1.76.11-.72.17-1.6.17-2.65s-.06-1.98-.17-2.72c-.11-.73-.37-1.32-.76-1.76-.39-.44-1.02-.76-1.89-.96-.87-.2-2.05-.29-3.55-.29h-8.04v11.47Z"/>
      <path d="m159.87,34.53c-2.68,0-4.88-.16-6.62-.47-1.73-.31-3.1-.84-4.12-1.59-1.01-.75-1.75-1.78-2.21-3.09-.46-1.31-.75-2.95-.88-4.92-.13-1.98-.2-4.37-.2-7.18s.07-5.2.2-7.18c.13-1.98.42-3.62.88-4.92.46-1.31,1.19-2.33,2.21-3.09,1.01-.75,2.38-1.28,4.12-1.59,1.73-.31,3.94-.47,6.62-.47s4.89.16,6.64.47c1.75.31,3.13.84,4.14,1.59,1.01.75,1.76,1.78,2.23,3.09.47,1.31.78,2.95.91,4.92.13,1.98.2,4.37.2,7.18s-.07,5.2-.2,7.18c-.13,1.98-.43,3.62-.91,4.92-.47,1.31-1.22,2.34-2.23,3.09-1.01.75-2.39,1.28-4.14,1.59-1.75.31-3.96.47-6.64.47Zm0-4.7c1.63,0,2.98-.05,4.04-.15,1.06-.1,1.89-.34,2.5-.73.6-.39,1.05-1.04,1.35-1.94.29-.9.48-2.12.56-3.68.08-1.55.12-3.57.12-6.05s-.04-4.5-.12-6.05c-.08-1.55-.27-2.78-.56-3.67-.29-.9-.74-1.54-1.35-1.94-.6-.39-1.44-.64-2.5-.73-1.06-.1-2.41-.15-4.04-.15s-2.92.05-3.97.15-1.88.34-2.5.73-1.07,1.04-1.35,1.94c-.28.9-.46,2.12-.54,3.67-.08,1.55-.12,3.57-.12,6.05s.04,4.5.12,6.05c.08,1.55.26,2.78.54,3.68.28.9.73,1.54,1.35,1.94s1.45.64,2.5.73,2.37.15,3.97.15Z"/>
      <path d="m194.8,34.14V5.27h-10.24V.42h25.97v4.85h-10.19v28.86h-5.54Z"/>
      <path d="m222.24,34.14V.42h22.44v4.7h-16.91v9.65h14.6v4.7h-14.6v9.95h16.91v4.7h-22.44Z"/>
      <path d="m257.91,34.14V.42h5.54v33.71h-5.54Z"/>
      <path d="m278.39,34.14V.42h5.73l15.43,23.32h.2V.42h5.29v33.71h-5.29l-15.88-24.06h-.2v24.06h-5.29Z"/>
      <path class="cls-1" d="m83.13,79.53c-2.52,0-4.64-.16-6.37-.49-1.73-.33-3.17-.87-4.31-1.64-1.14-.77-2.03-1.81-2.67-3.14-.64-1.32-1.08-2.96-1.32-4.92s-.37-4.31-.37-7.06.12-5.1.37-7.06.69-3.6,1.35-4.92c.65-1.32,1.55-2.37,2.69-3.14,1.14-.77,2.58-1.31,4.31-1.64,1.73-.33,3.84-.49,6.32-.49,1.11,0,2.35.05,3.72.15s2.74.23,4.09.39c1.35.16,2.62.36,3.8.59v6.12c-1.11-.16-2.21-.29-3.31-.37-1.09-.08-2.1-.15-3.01-.22-.91-.06-1.67-.1-2.25-.1-1.76,0-3.22.03-4.36.1-1.14.07-2.07.27-2.79.61-.72.34-1.26.89-1.62,1.64-.36.75-.6,1.81-.71,3.16-.11,1.36-.17,3.08-.17,5.17,0,1.86.04,3.43.12,4.7.08,1.27.26,2.32.54,3.14.28.82.67,1.45,1.18,1.89.51.44,1.18.74,2.01.91.83.16,1.85.25,3.06.25.39,0,.82,0,1.27-.02.46-.02.9-.04,1.32-.07.42-.03.78-.05,1.08-.05v-7.3h-4.8v-6.12h12.59v18.86c-1.18.23-2.47.42-3.87.56-1.4.15-2.79.27-4.17.37-1.37.1-2.61.15-3.72.15Z"/>
      <path class="cls-1" d="m101.56,79.14v-33.71h8.53v33.71h-8.53Z"/>
      <path class="cls-1" d="m131.35,79.53c-2.52,0-4.64-.16-6.37-.49-1.73-.33-3.17-.87-4.31-1.64-1.14-.77-2.03-1.81-2.67-3.14-.64-1.32-1.08-2.96-1.32-4.92s-.37-4.31-.37-7.06.12-5.1.37-7.06.69-3.6,1.35-4.92c.65-1.32,1.55-2.37,2.69-3.14,1.14-.77,2.58-1.31,4.31-1.64,1.73-.33,3.84-.49,6.32-.49,1.11,0,2.35.05,3.72.15s2.74.23,4.09.39c1.35.16,2.62.36,3.8.59v6.12c-1.11-.16-2.21-.29-3.31-.37-1.09-.08-2.1-.15-3.01-.22-.91-.06-1.67-.1-2.25-.1-1.76,0-3.22.03-4.36.1-1.14.07-2.07.27-2.79.61-.72.34-1.26.89-1.62,1.64-.36.75-.6,1.81-.71,3.16-.11,1.36-.17,3.08-.17,5.17,0,1.86.04,3.43.12,4.7.08,1.27.26,2.32.54,3.14.28.82.67,1.45,1.18,1.89.51.44,1.18.74,2.01.91.83.16,1.85.25,3.06.25.39,0,.82,0,1.27-.02.46-.02.9-.04,1.32-.07.42-.03.78-.05,1.08-.05v-7.3h-4.8v-6.12h12.59v18.86c-1.18.23-2.47.42-3.87.56-1.4.15-2.79.27-4.17.37-1.37.1-2.61.15-3.72.15Z"/>
      <path class="cls-1" d="m146.68,79.14l10.68-33.71h11.61l10.73,33.71h-8.62l-2.01-6.62h-12.01l-1.96,6.62h-8.43Zm12.2-13.03h8.33l-4.02-13.33h-.34l-3.97,13.33Z"/>
      <path class="cls-1" d="m183.58,79.14v-33.71h8.77l10.98,18.08h.25v-18.08h8.18v33.71h-7.99l-11.76-19.75h-.25v19.75h-8.18Z"/>
      <path class="cls-1" d="m225.33,79.14v-26.85h-9.21v-6.86h27v6.86h-9.26v26.85h-8.53Z"/>
      <path class="cls-1" d="m247.48,79.14v-33.71h23.62v6.57h-15.09v6.91h12.79v6.47h-12.79v7.2h15.09v6.57h-23.62Z"/>
      <path class="cls-1" d="m277.17,79.14v-33.71h8.77l10.98,18.08h.25v-18.08h8.18v33.71h-7.99l-11.76-19.75h-.25v19.75h-8.18Z"/>
    </g>
    <path class="cls-1" d="m28.29,59.89c5.34,7.07,13.6,8.67,21.43,11.34-4.72.71-9.4.86-14.06.28-7.86-.97-15.14-3.71-21.94-7.74-1.29-.76-2.47-1.05-4.03-.75-4.26.82-5.65-.26-6.87-4.54-1.17-4.13-2.19-8.29-2.68-12.56-.62-5.37.79-10.34,2.92-15.24,3.31-7.6,6.74-15.09,11.3-22.08C19.24,1.15,25.77-.94,34.27.36c4.18.64,6.84,2.32,8.25,6.2,2.34,6.45-1.47,12.3-8.28,12.47-2.08.05-4.17-.31-6.24-.6-2.16-.3-3.11-1.66-2.93-3.9-1.22,3.4-1.05,6.83-.44,10.18.91,4.96,1.28,9.82-.76,14.6-.24.57-.74,1.58.13,1.7,1.5.2,3.23,1.17,4.55-.4,2.64-3.13,6.2-4.34,10.05-4.83,4.89-.62,9.5.27,13.58,3.17,3.28,2.33,3.44,3.51.71,7.22,3.12-2.22,5.63-4.18,8.32-5.86,3.08-1.92,3.74-1.51,3.74,2.01.01,11.43.01,22.87-.01,34.3,0,.8.44,1.96-.53,2.3-.95.34-1.33-.84-1.9-1.43-4.52-4.76-9.9-7.97-16.39-9.25-6.62-1.3-13.01-3.11-17.84-8.37Z"/>
    <path class="cls-1" d="m345.99,60.02c-5.34,7.07-13.6,8.67-21.43,11.34,4.72.71,9.4.86,14.06.28,7.86-.97,15.14-3.71,21.94-7.74,1.29-.76,2.47-1.05,4.03-.75,4.26.82,5.65-.26,6.87-4.54,1.17-4.13,2.19-8.29,2.68-12.56.62-5.37-.79-10.34-2.92-15.24-3.31-7.6-6.74-15.09-11.3-22.08-4.88-7.48-11.4-9.56-19.91-8.26-4.18.64-6.84,2.32-8.25,6.2-2.34,6.45,1.47,12.3,8.28,12.47,2.08.05,4.17-.31,6.24-.6,2.16-.3,3.11-1.66,2.93-3.9,1.22,3.4,1.05,6.83.44,10.18-.91,4.96-1.28,9.82.76,14.6.24.57.74,1.58-.13,1.7-1.5.2-3.23,1.17-4.55-.4-2.64-3.13-6.2-4.34-10.05-4.83-4.89-.62-9.5.27-13.58,3.17-3.28,2.33-3.44,3.51-.71,7.22-3.12-2.22-5.63-4.18-8.32-5.86-3.08-1.92-3.74-1.51-3.74,2.01-.01,11.43-.01,22.87.01,34.3,0,.8-.44,1.96.53,2.3.95.34,1.33-.84,1.9-1.43,4.52-4.76,9.9-7.97,16.39-9.25,6.62-1.3,13.01-3.11,17.84-8.37Z"/>
  </g>
</svg>